<?xml version="1.0" standalone="no"?><!DOCTYPE svg PUBLIC "-//W3C//DTD SVG 1.1//EN" "http://www.w3.org/Graphics/SVG/1.1/DTD/svg11.dtd"><svg t="1718172054718" class="icon" viewBox="0 0 1024 1024" version="1.1" xmlns="http://www.w3.org/2000/svg" p-id="8195" xmlns:xlink="http://www.w3.org/1999/xlink" width="16" height="16"><path d="M544 627.2c0-12.8 6.4-19.2 6.4-25.6l51.2-51.2 6.4-6.4c70.4-57.6 96-89.6 96-147.2 0-102.4-83.2-185.6-185.6-185.6-83.2 0-153.6 57.6-179.2 134.4 0 25.6 12.8 44.8 32 51.2 25.6 6.4 44.8-6.4 51.2-32 12.8-44.8 51.2-70.4 96-70.4 57.6 0 96 44.8 96 96 0 25.6-12.8 44.8-64 83.2l-6.4 6.4c-32 25.6-51.2 44.8-64 64-6.4 25.6-12.8 44.8-19.2 70.4-6.4 25.6 12.8 44.8 38.4 51.2 25.6 0 44.8-19.2 44.8-38.4z" fill="#8a8a8a" p-id="8196"></path><path d="M512 940.8A428.8 428.8 0 1 0 512 83.2a428.8 428.8 0 0 0 0 857.6zM512 1024c-281.6 0-512-230.4-512-512s230.4-512 512-512 512 230.4 512 512-230.4 512-512 512z" fill="#333" p-id="8197"></path><path d="M499.2 748.8m-64 0a64 64 0 1 0 128 0 64 64 0 1 0-128 0Z" fill="#333" p-id="8198"></path></svg>
