<?xml version="1.0" standalone="no"?><!DOCTYPE svg PUBLIC "-//W3C//DTD SVG 1.1//EN" "http://www.w3.org/Graphics/SVG/1.1/DTD/svg11.dtd"><svg t="1717398093369" class="icon" viewBox="0 0 1024 1024" version="1.1" xmlns="http://www.w3.org/2000/svg" p-id="14412" xmlns:xlink="http://www.w3.org/1999/xlink" width="16" height="16"><path d="M511.9 219.4h0.3c21.6 0 39.1-17.5 39.1-39.1V90.2c0-21.7-17.6-39.3-39.3-39.3s-39.3 17.6-39.3 39.3v90.1c0 21.6 17.6 39.1 39.2 39.1z m-289.1 92.4c7.8 0 15.2-2.3 21.6-6.5l0.5 1.8 5.9-5.9c7.4-7.4 11.5-17.2 11.5-27.7 0-10.4-4-20.3-11.4-27.7l-61.4-65.2c-15-15.5-39.9-16.1-55.5-1.1-15.6 14.9-16.1 39.8-1.2 55.5l62.1 65.2 0.1 0.1c7.4 7.3 17.2 11.4 27.8 11.5z m-92.7 213.7H39.7C18 525.5 0.4 543.1 0.4 564.8s17.6 39.3 39.3 39.3h90.4c21.7 0 39.3-17.6 39.3-39.3s-17.6-39.3-39.3-39.3z m854.2 1h-90.1c-21.7 0-39.3 17.6-39.3 39.3s17.6 39.3 39.3 39.3h90.1c21.7 0 39.3-17.6 39.3-39.3-0.1-21.7-17.7-39.3-39.3-39.3z m-75.2-317.2c0.1-10.5-4-20.4-11.4-27.8l-0.9-0.9-1.3-0.5c-15.2-14.5-39.5-14.3-54.6 0.7l-63.8 63.8c-7.4 7.4-11.5 17.3-11.5 27.7 0 10.5 4.1 20.3 11.5 27.7 7.4 7.4 17.3 11.5 27.7 11.5 10.5 0 20.3-4.1 27.7-11.5l64.9-63.2c7.6-7.3 11.7-17.1 11.7-27.5zM747.7 381.8H601.4c-33.5 0-65.6 13.4-88.8 37-23.2-23.6-55.2-37-88.8-37H276.3c-39.9 0-72.3 32.3-72.3 71.9V870c0 39.6 32.4 71.9 72.3 71.9h166c17.8 19.9 43 31.2 69.7 31.2 26.7 0 52-11.3 69.7-31.2h166.1c39.9 0 72.3-32.3 72.3-71.9V453.7c-0.1-39.7-32.6-71.9-72.4-71.9z m1 487.9c0 0.4-0.2 0.7-0.2 0.8-0.2 0.2-0.5 0.3-0.7 0.3H552.5c-9.1 0-17.1 6.1-19.3 15-2.4 9.5-11.1 16.1-21.2 16.1-9.9 0-18.6-6.7-21.2-16.1-2.3-8.8-10.2-15-19.3-15H276.3c-0.2 0-0.5 0-0.7-0.2-0.2-0.2-0.2-0.4-0.2-0.5V453.7c0-0.2 0.1-0.4 0.2-0.6 0.2-0.2 0.5-0.2 0.7-0.2h147.5c29.3 0 53.1 23.6 53.1 52.7v278.9c0 1.6 0.2 3 0.5 4.3 2.7 17.1 17.8 30 35.2 30 17.5 0 32.6-13 35.2-30.3v-0.2c0.2-1.1 0.4-2.4 0.4-3.9V505.6c0-29.1 23.8-52.7 53.1-52.7h146.4c0.2 0 0.5 0 0.7 0.2 0.2 0.2 0.2 0.4 0.2 0.5v416.1z" p-id="14413" fill="#8a8a8a"></path></svg>
