<?xml version="1.0" standalone="no"?><!DOCTYPE svg PUBLIC "-//W3C//DTD SVG 1.1//EN" "http://www.w3.org/Graphics/SVG/1.1/DTD/svg11.dtd"><svg t="1717140315263" class="icon" viewBox="0 0 1024 1024" version="1.1" xmlns="http://www.w3.org/2000/svg" p-id="6068" xmlns:xlink="http://www.w3.org/1999/xlink" width="16" height="16"><path d="M832.48 376.853333l12.266667-206.186666a5.333333 5.333333 0 0 0-5.866667-5.653334l-205.44 19.466667a5.333333 5.333333 0 0 1-2.453333-0.32l-192-75.36a5.333333 5.333333 0 0 0-7.2 3.786667l-45.12 201.6a5.333333 5.333333 0 0 1-1.12 2.24l-131.04 159.466666a5.333333 5.333333 0 0 0 1.44 8l139.466666 82.453334a5.333333 5.333333 0 0 1 1.013334 8.426666l-285.973334 285.973334a5.333333 5.333333 0 0 0 0 7.573333l45.226667 45.226667a5.333333 5.333333 0 0 0 7.573333 0l287.2-287.2a5.333333 5.333333 0 0 1 8.32 0.906666l87.786667 137.333334a5.333333 5.333333 0 0 0 8.053333 1.12L709.333333 629.333333a4.586667 4.586667 0 0 1 2.186667-1.173333l199.84-52.16a5.333333 5.333333 0 0 0 3.573333-7.306667l-82.026666-189.386666a5.333333 5.333333 0 0 1-0.426667-2.453334z m-140.906667 179.2l-16 4.16a5.813333 5.813333 0 0 0-2.186666 1.173334l-12.426667 10.666666-90.346667 80a5.333333 5.333333 0 0 1-8.106666-1.12L497.653333 549.333333l-8.906666-13.92a5.333333 5.333333 0 0 0-1.813334-1.706666l-14.24-8.373334L368.96 464a5.333333 5.333333 0 0 1-1.44-8.053333L444.053333 362.666667l10.666667-12.8a4.853333 4.853333 0 0 0 1.066667-2.24l3.626666-16L485.333333 214.08a5.333333 5.333333 0 0 1 7.2-3.786667l112 44 15.36 6.026667a4.906667 4.906667 0 0 0 2.453334 0.32l16.48-1.546667 120-11.36a5.333333 5.333333 0 0 1 5.813333 5.653334l-6.773333 120.32-1.013334 16.48a5.333333 5.333333 0 0 0 0.48 2.453333l6.56 15.2 48 110.56a5.333333 5.333333 0 0 1-3.573333 7.306667z" p-id="6069" fill="#409eff"></path></svg>